<svg width="167" height="28" viewBox="0 0 167 28" fill="none" xmlns="http://www.w3.org/2000/svg">
<path d="M4.97628 2.69359C6.99589 -0.897866 11.9752 -0.897861 13.9948 2.69359L18.2451 10.2519C20.2884 13.8855 17.7755 18.4596 13.7358 18.4596H5.2352C1.19556 18.4596 -1.3174 13.8855 0.72595 10.2519L4.97628 2.69359Z" fill="url(#paint0_linear_244_25510)"/>
<path d="M14.0052 25.3064C16.0248 28.8979 21.0041 28.8979 23.0237 25.3064L27.274 17.7481C29.3174 14.1145 26.8044 9.54035 22.7648 9.54035H14.2642C10.2245 9.54035 7.71155 14.1145 9.7549 17.7481L14.0052 25.3064Z" fill="url(#paint1_linear_244_25510)"/>
<path d="M51.1724 7.436V20H48.6524V11.828L45.2864 20H43.3784L39.9944 11.828V20H37.4744V7.436H40.3364L44.3324 16.778L48.3284 7.436H51.1724ZM58.0919 20.162C57.1319 20.162 56.2679 19.952 55.4999 19.532C54.7319 19.1 54.1259 18.494 53.6819 17.714C53.2499 16.934 53.0339 16.034 53.0339 15.014C53.0339 13.994 53.2559 13.094 53.6999 12.314C54.1559 11.534 54.7739 10.934 55.5539 10.514C56.3339 10.082 57.2039 9.866 58.1639 9.866C59.1239 9.866 59.9939 10.082 60.7739 10.514C61.5539 10.934 62.1659 11.534 62.6099 12.314C63.0659 13.094 63.2939 13.994 63.2939 15.014C63.2939 16.034 63.0599 16.934 62.5919 17.714C62.1359 18.494 61.5119 19.1 60.7199 19.532C59.9399 19.952 59.0639 20.162 58.0919 20.162ZM58.0919 17.966C58.5479 17.966 58.9739 17.858 59.3699 17.642C59.7779 17.414 60.1019 17.078 60.3419 16.634C60.5819 16.19 60.7019 15.65 60.7019 15.014C60.7019 14.066 60.4499 13.34 59.9459 12.836C59.4539 12.32 58.8479 12.062 58.1279 12.062C57.4079 12.062 56.8019 12.32 56.3099 12.836C55.8299 13.34 55.5899 14.066 55.5899 15.014C55.5899 15.962 55.8239 16.694 56.2919 17.21C56.7719 17.714 57.3719 17.966 58.0919 17.966ZM69.3004 17.678L71.8204 10.028H74.5024L70.8124 20H67.7524L64.0804 10.028H66.7804L69.3004 17.678ZM85.1878 14.798C85.1878 15.158 85.1638 15.482 85.1158 15.77H77.8258C77.8858 16.49 78.1378 17.054 78.5818 17.462C79.0258 17.87 79.5718 18.074 80.2198 18.074C81.1558 18.074 81.8218 17.672 82.2178 16.868H84.9358C84.6478 17.828 84.0958 18.62 83.2798 19.244C82.4638 19.856 81.4618 20.162 80.2738 20.162C79.3138 20.162 78.4498 19.952 77.6818 19.532C76.9258 19.1 76.3318 18.494 75.8998 17.714C75.4798 16.934 75.2698 16.034 75.2698 15.014C75.2698 13.982 75.4798 13.076 75.8998 12.296C76.3198 11.516 76.9078 10.916 77.6638 10.496C78.4198 10.076 79.2898 9.866 80.2738 9.866C81.2218 9.866 82.0678 10.07 82.8118 10.478C83.5678 10.886 84.1498 11.468 84.5578 12.224C84.9778 12.968 85.1878 13.826 85.1878 14.798ZM82.5778 14.078C82.5658 13.43 82.3318 12.914 81.8758 12.53C81.4198 12.134 80.8618 11.936 80.2018 11.936C79.5778 11.936 79.0498 12.128 78.6178 12.512C78.1978 12.884 77.9398 13.406 77.8438 14.078H82.5778ZM100.725 7.436V20H98.2052V11.828L94.8392 20H92.9312L89.5472 11.828V20H87.0272V7.436H89.8892L93.8852 16.778L97.8812 7.436H100.725ZM107.645 20.162C106.685 20.162 105.821 19.952 105.053 19.532C104.285 19.1 103.679 18.494 103.235 17.714C102.803 16.934 102.587 16.034 102.587 15.014C102.587 13.994 102.809 13.094 103.253 12.314C103.709 11.534 104.327 10.934 105.107 10.514C105.887 10.082 106.757 9.866 107.717 9.866C108.677 9.866 109.547 10.082 110.327 10.514C111.107 10.934 111.719 11.534 112.163 12.314C112.619 13.094 112.847 13.994 112.847 15.014C112.847 16.034 112.613 16.934 112.145 17.714C111.689 18.494 111.065 19.1 110.273 19.532C109.493 19.952 108.617 20.162 107.645 20.162ZM107.645 17.966C108.101 17.966 108.527 17.858 108.923 17.642C109.331 17.414 109.655 17.078 109.895 16.634C110.135 16.19 110.255 15.65 110.255 15.014C110.255 14.066 110.003 13.34 109.499 12.836C109.007 12.32 108.401 12.062 107.681 12.062C106.961 12.062 106.355 12.32 105.863 12.836C105.383 13.34 105.143 14.066 105.143 15.014C105.143 15.962 105.377 16.694 105.845 17.21C106.325 17.714 106.925 17.966 107.645 17.966ZM120.221 9.884C121.409 9.884 122.369 10.262 123.101 11.018C123.833 11.762 124.199 12.806 124.199 14.15V20H121.679V14.492C121.679 13.7 121.481 13.094 121.085 12.674C120.689 12.242 120.149 12.026 119.465 12.026C118.769 12.026 118.217 12.242 117.809 12.674C117.413 13.094 117.215 13.7 117.215 14.492V20H114.695V10.028H117.215V11.27C117.551 10.838 117.977 10.502 118.493 10.262C119.021 10.01 119.597 9.884 120.221 9.884ZM135.866 14.798C135.866 15.158 135.842 15.482 135.794 15.77H128.504C128.564 16.49 128.816 17.054 129.26 17.462C129.704 17.87 130.25 18.074 130.898 18.074C131.834 18.074 132.5 17.672 132.896 16.868H135.614C135.326 17.828 134.774 18.62 133.958 19.244C133.142 19.856 132.14 20.162 130.952 20.162C129.992 20.162 129.128 19.952 128.36 19.532C127.604 19.1 127.01 18.494 126.578 17.714C126.158 16.934 125.948 16.034 125.948 15.014C125.948 13.982 126.158 13.076 126.578 12.296C126.998 11.516 127.586 10.916 128.342 10.496C129.098 10.076 129.968 9.866 130.952 9.866C131.9 9.866 132.746 10.07 133.49 10.478C134.246 10.886 134.828 11.468 135.236 12.224C135.656 12.968 135.866 13.826 135.866 14.798ZM133.256 14.078C133.244 13.43 133.01 12.914 132.554 12.53C132.098 12.134 131.54 11.936 130.88 11.936C130.256 11.936 129.728 12.128 129.296 12.512C128.876 12.884 128.618 13.406 128.522 14.078H133.256ZM147.245 10.028L141.071 24.716H138.389L140.549 19.748L136.553 10.028H139.379L141.953 16.994L144.563 10.028H147.245ZM155.605 7.418V8.462H150.061V13.16H154.741V14.204H150.061V20H148.801V7.418H155.605ZM162.214 13.718L166.03 20H164.626L161.422 14.744L158.38 20H156.976L160.774 13.664L156.976 7.418H158.38L161.566 12.656L164.644 7.418H166.048L162.214 13.718Z" fill="white"/>
<defs>
<linearGradient id="paint0_linear_244_25510" x1="13.9141" y1="-2.74847" x2="7.3865" y2="32.8957" gradientUnits="userSpaceOnUse">
<stop stop-color="#FFAF37"/>
<stop offset="0.86532" stop-color="#FF2E00"/>
<stop offset="0.9999" stop-color="#FF7B01"/>
</linearGradient>
<linearGradient id="paint1_linear_244_25510" x1="16.8344" y1="23.1902" x2="10.6503" y2="-2.83436" gradientUnits="userSpaceOnUse">
<stop stop-color="#00D7F5"/>
<stop offset="1" stop-color="#039BF1"/>
</linearGradient>
</defs>
</svg>
