<svg width="89.89" height="70" viewBox="0 0 89.89 70" fill="none" xmlns="http://www.w3.org/2000/svg">
<g filter="url(#filter0_d_11351_4598)">
<path d="M56.1803 65.6933C55.9594 70.0232 50.4488 71.5995 48.0308 68.0244L14.8997 19.0395C13.21 16.5412 14.3644 13.0968 17.2051 12.1612L53.4438 0.225474C56.4246 -0.756274 59.4499 1.59767 59.288 4.77263L56.1803 65.6933Z" fill="url(#paint0_linear_11351_4598)"/>
<path fill-rule="evenodd" clip-rule="evenodd" d="M17.6218 24.1868C15.4311 20.909 10.6213 20.9336 8.41755 24.2343L5.35423 28.8226L5.37396 28.8151L6.60107 43.7596C6.85774 46.8856 9.98494 48.8994 12.8826 47.8047L64.672 28.2401C66.6371 27.4978 67.8731 25.5174 67.6943 23.398L66.736 12.0398C66.4726 8.91889 63.3488 6.91235 60.4553 8.00544L17.6218 24.1868Z" fill="black"/>
<path d="M11.7182 19.2862C12.3485 18.3422 13.7192 18.3421 14.3496 19.2859L17.6218 24.1846L5.35352 28.8193L11.7182 19.2862Z" fill="#1A1A1A"/>
<path fill-rule="evenodd" clip-rule="evenodd" d="M28.6287 62.3909L83.314 41.7323L82.0922 26.7861C81.8366 23.6594 78.7088 21.6444 75.8105 22.7393L24.8823 41.9786C23.294 42.5786 22.2947 44.179 22.4386 45.8921L23.5506 59.1277C23.7627 61.6516 26.2888 63.2749 28.6287 62.3909ZM68.8863 47.1834C69.8224 51.3414 75.1585 52.4849 77.746 49.0821L83.3424 41.7223L68.8863 47.1834Z" fill="#1A1A1A"/>
<path d="M73.2962 54.9285C72.4757 56.0075 70.7876 55.6313 70.4885 54.3028L68.8848 47.1799L83.3409 41.7188L73.2962 54.9285Z" fill="black"/>
</g>
<path d="M73.8383 23.3297C73.4235 23.3297 73.0588 23.2426 72.7441 23.0685C72.4294 22.8895 72.1839 22.6405 72.0075 22.3212C71.8358 22.002 71.75 21.6368 71.75 21.2257C71.75 20.655 71.8763 20.1374 72.129 19.6731C72.3865 19.204 72.7393 18.8364 73.1875 18.5703C73.6357 18.2995 74.1363 18.1641 74.6894 18.1641C75.1089 18.1641 75.476 18.2535 75.7907 18.4325C76.1102 18.6066 76.3557 18.8533 76.5273 19.1725C76.699 19.4869 76.7848 19.8497 76.7848 20.2608C76.7848 20.8364 76.6561 21.3587 76.3986 21.8279C76.1459 22.2922 75.7955 22.6598 75.3473 22.9307C74.8991 23.1967 74.3961 23.3297 73.8383 23.3297ZM73.9313 22.7348C74.3508 22.7348 74.7251 22.6259 75.0541 22.4083C75.3878 22.1858 75.6477 21.8883 75.8336 21.5159C76.0196 21.1435 76.1125 20.7396 76.1125 20.3043C76.1125 19.8255 75.9767 19.4482 75.7049 19.1725C75.4331 18.8968 75.0636 18.759 74.5964 18.759C74.1768 18.759 73.8002 18.8702 73.4664 19.0927C73.1374 19.3104 72.88 19.6054 72.694 19.9778C72.5128 20.3454 72.4223 20.7469 72.4223 21.1822C72.4223 21.661 72.5558 22.0407 72.8228 22.3212C73.0945 22.5969 73.464 22.7348 73.9313 22.7348Z" fill="#000008"/>
<path d="M81.281 18.2221L81.188 18.7372H79.0282L78.7278 20.4712H80.4872L80.3942 20.9863H78.6349L78.2344 23.2789H77.5836L78.4704 18.2221H81.281Z" fill="#000008"/>
<path d="M85.2821 18.2221L85.1891 18.7372H83.0293L82.7289 20.4712H84.4883L84.3953 20.9863H82.636L82.2355 23.2789H81.5847L82.4715 18.2221H85.2821Z" fill="#000008"/>
<path d="M41.8846 40.1556L43.5214 49.8672L40.711 50.8889L39.8953 46.0612L39.3249 51.3928L36.9086 52.2711L34.6932 47.9087L35.5225 52.7751L32.6993 53.8014L31.0625 44.0898L34.5215 42.8323L37.4929 47.9536L38.4383 41.4084L41.8846 40.1556Z" fill="url(#paint1_linear_11351_4598)"/>
<path d="M49.5205 47.7882C48.7575 48.0656 48.0315 48.15 47.3426 48.0413C46.6537 47.9327 46.0506 47.6473 45.5334 47.1851C45.0131 46.7143 44.6208 46.1047 44.3565 45.3565C43.9707 44.2642 43.8508 43.2208 43.997 42.2263C44.1486 41.2201 44.5408 40.34 45.1737 39.5858C45.812 38.82 46.6525 38.2476 47.6953 37.8685C48.4753 37.5849 49.2097 37.4975 49.8986 37.6061C50.593 37.7031 51.1988 37.9827 51.716 38.4449C52.2302 38.8985 52.6195 39.4994 52.8838 40.2476C53.2666 41.3313 53.3837 42.3805 53.2351 43.3953C53.0951 44.407 52.7016 45.2973 52.0548 46.0662C51.4165 46.832 50.5718 47.406 49.5205 47.7882ZM49.0095 44.9606C49.4504 44.8003 49.7909 44.5455 50.031 44.1962C50.2766 43.8352 50.4158 43.4303 50.4486 42.9817C50.4784 42.5244 50.4128 42.0679 50.2518 41.612C50.0847 41.139 49.8284 40.8197 49.483 40.6542C49.1429 40.4769 48.7397 40.4731 48.2735 40.6426C47.8326 40.8028 47.4879 41.0592 47.2393 41.4116C46.9907 41.764 46.8472 42.1704 46.8089 42.6307C46.7761 43.0794 46.8402 43.5316 47.0012 43.9875C47.1683 44.4605 47.4219 44.7856 47.7619 44.9629C48.1104 45.137 48.5263 45.1362 49.0095 44.9606Z" fill="url(#paint2_linear_11351_4598)"/>
<path d="M56.1068 34.9853L59.0892 40.9906L59.8075 33.64L62.8087 32.5489L61.4189 43.3608L57.7691 44.6876L53.1057 36.0763L56.1068 34.9853Z" fill="url(#paint3_linear_11351_4598)"/>
<path d="M66.9521 33.6048L67.1624 34.8094L69.9601 33.7923L70.3397 36.0854L67.5419 37.1025L67.7688 38.4758L70.948 37.32L71.3604 39.7468L65.358 41.9288L63.7211 32.2172L69.7235 30.0352L70.1314 32.449L66.9521 33.6048Z" fill="url(#paint4_linear_11351_4598)"/>
<path d="M5.254 41.9266L4.32864 28.6612L58.7253 8.11164C60.9981 7.25303 63.4794 8.84103 63.6597 11.3408L64.4142 21.8037C64.5343 23.47 63.5552 25.0044 62.0313 25.58L10.189 45.1646C7.91287 46.0245 5.42866 44.4306 5.254 41.9266Z" stroke="#ECECEC" stroke-width="2"/>
<path d="M79.1374 25.5934L80.2978 39.7888L26.3172 60.1812C24.6154 60.8241 22.747 59.6503 22.589 57.7698L21.477 44.5342C21.3698 43.2584 22.1146 42.0792 23.2776 41.6399L74.2057 22.4006C76.4649 21.5471 78.9344 23.111 79.1374 25.5934Z" stroke="#EBEBEB" stroke-width="2"/>
<g filter="url(#filter1_d_11351_4598)">
<ellipse cx="79.0094" cy="16.6822" rx="10.8766" ry="11.0338" fill="url(#paint5_linear_11351_4598)"/>
</g>
<path d="M21.4532 29.9194C21.5483 30.4865 21.4916 31.0166 21.2831 31.5098C21.0716 31.9943 20.7497 32.383 20.3175 32.676C20.7978 32.6275 21.2087 32.7208 21.55 32.9558C21.8967 33.1791 22.1445 33.5015 22.2934 33.9229C22.342 34.0605 22.3809 34.2114 22.4102 34.3754C22.5571 35.2246 22.407 35.9779 21.9601 36.6353C21.5185 37.2811 20.8102 37.7812 19.8353 38.1356L15.1173 39.8508L13.4805 30.1392L18.0713 28.4703C18.8851 28.1744 19.5745 28.1082 20.1393 28.2717C20.7095 28.4235 21.104 28.809 21.3227 29.4282C21.3743 29.5744 21.4178 29.7381 21.4532 29.9194ZM18.6734 31.5559C18.6667 31.5098 18.6511 31.4524 18.6268 31.3836C18.5661 31.2116 18.4669 31.1069 18.3294 31.0696C18.2003 31.0291 18.0255 31.049 17.8051 31.1291L16.7115 31.5267L16.9383 32.9L18.0319 32.5024C18.2863 32.41 18.4673 32.2859 18.5749 32.1303C18.6826 31.9747 18.7154 31.7833 18.6734 31.5559ZM19.4494 34.9714C19.4427 34.9253 19.4272 34.8679 19.4028 34.7991C19.2874 34.4722 19.0135 34.3874 18.5811 34.5446L17.2967 35.0115L17.5362 36.3802L18.8206 35.9133C19.075 35.8208 19.2533 35.7026 19.3555 35.5587C19.4632 35.4031 19.4945 35.2073 19.4494 34.9714Z" fill="white"/>
<path d="M26.5301 33.2562L29.2515 32.2669L29.6356 34.5729L24.091 36.5885L22.4542 26.8769L25.2773 25.8506L26.5301 33.2562Z" fill="white"/>
<path d="M36.332 30.5809L33.3308 31.6719L33.1317 33.3019L30.1687 34.3791L31.8255 23.4701L35.081 22.2866L39.9988 30.8055L37.0231 31.8873L36.332 30.5809ZM35.2657 28.5374L33.9992 26.13L33.638 29.1292L35.2657 28.5374Z" fill="white"/>
<path d="M39.8498 25.6918C39.6834 24.7333 39.7173 23.8135 39.9514 22.9326C40.1855 22.0517 40.603 21.2837 41.2038 20.6285C41.8017 19.9648 42.5542 19.468 43.4613 19.1382C44.2413 18.8547 44.9642 18.7617 45.6301 18.8593C46.3014 18.9452 46.8811 19.2052 47.3692 19.6391C47.8574 20.0731 48.2248 20.6528 48.4715 21.3784L45.4958 22.4601C45.3046 22.1899 45.07 22.0132 44.7919 21.9299C44.5107 21.8381 44.209 21.8507 43.8868 21.9678C43.4121 22.1404 43.0689 22.4689 42.8574 22.9534C42.6459 23.4379 42.5971 24.004 42.7111 24.6516C42.7379 24.8359 42.7863 25.027 42.8562 25.2248C43.0142 25.6721 43.2447 25.9862 43.5478 26.1671C43.8594 26.345 44.2144 26.3615 44.6128 26.2167C44.935 26.0995 45.2071 25.9084 45.4292 25.6433C45.6482 25.3696 45.7978 25.0483 45.8779 24.6795L48.8537 23.5977C48.8546 24.4126 48.7091 25.1788 48.4172 25.8963C48.1254 26.6138 47.6978 27.2448 47.1343 27.7893C46.5763 28.3221 45.9074 28.7303 45.1274 29.0139C44.339 29.3005 43.6133 29.3993 42.9505 29.3103C42.2846 29.2127 41.7118 28.9454 41.2322 28.5083C40.7495 28.0627 40.3805 27.4787 40.1253 26.7562C40.0008 26.4036 39.9089 26.0488 39.8498 25.6918Z" fill="white"/>
<path d="M55.4022 19.8342L59.5763 23.6884L56.219 24.9089L52.8825 21.6382L53.5993 25.8612L50.7762 26.8876L49.1394 17.1759L51.9625 16.1496L52.6465 20.2391L54.544 15.2112L57.736 14.0508L55.4022 19.8342Z" fill="white"/>
<path d="M75.8117 11.7043H73.6591L73.516 12.5097C73.6305 12.4129 73.7711 12.3355 73.938 12.2775C74.1049 12.2195 74.2813 12.1904 74.4672 12.1904C74.8963 12.1904 75.2158 12.3138 75.4256 12.5605C75.6353 12.8023 75.7402 13.1167 75.7402 13.5036C75.7402 13.6245 75.7283 13.7624 75.7045 13.9172C75.6043 14.4879 75.366 14.9377 74.9893 15.2666C74.6126 15.5907 74.1406 15.7527 73.5733 15.7527C73.044 15.7527 72.634 15.6318 72.3432 15.3899C72.0571 15.1481 71.9141 14.8216 71.9141 14.4105C71.9141 14.3186 71.9212 14.2219 71.9355 14.1203H73.3086C73.2991 14.2315 73.3277 14.3283 73.3945 14.4105C73.466 14.4927 73.578 14.5338 73.7306 14.5338C73.9022 14.5338 74.0405 14.4758 74.1454 14.3597C74.2503 14.2436 74.3194 14.0889 74.3528 13.8954C74.3623 13.818 74.3671 13.7648 74.3671 13.7358C74.3671 13.6003 74.329 13.4964 74.2527 13.4238C74.1764 13.3513 74.0667 13.315 73.9237 13.315C73.795 13.315 73.6853 13.3488 73.5947 13.4166C73.5041 13.4794 73.4421 13.5592 73.4088 13.656H72.0499L72.6078 10.4492H76.0263L75.8117 11.7043Z" fill="black"/>
<path d="M76.4359 13.1118C76.5789 12.3138 76.8578 11.6802 77.2726 11.211C77.6874 10.7418 78.2524 10.5073 78.9676 10.5073C79.554 10.5073 79.9831 10.6693 80.2549 10.9934C80.5314 11.3126 80.6697 11.7551 80.6697 12.321C80.6697 12.5871 80.6459 12.8507 80.5982 13.1118C80.4599 13.9099 80.181 14.5459 79.7614 15.0199C79.3419 15.4891 78.7769 15.7237 78.0665 15.7237C77.48 15.7237 77.0486 15.5641 76.772 15.2448C76.5003 14.9256 76.3644 14.4806 76.3644 13.9099C76.3644 13.6487 76.3882 13.3827 76.4359 13.1118ZM79.2108 13.1118C79.2537 12.8507 79.2751 12.6499 79.2751 12.5097C79.2751 12.3017 79.2346 12.1397 79.1535 12.0236C79.0725 11.9075 78.9342 11.8495 78.7387 11.8495C78.4574 11.8495 78.25 11.9607 78.1165 12.1832C77.983 12.4057 77.8829 12.7152 77.8162 13.1118C77.7733 13.373 77.7518 13.5762 77.7518 13.7213C77.7518 13.9292 77.7923 14.0913 77.8734 14.2074C77.9544 14.3234 78.0951 14.3815 78.2953 14.3815C78.5766 14.3815 78.7793 14.2727 78.9032 14.055C79.032 13.8325 79.1345 13.5181 79.2108 13.1118Z" fill="black"/>
<path d="M81.2649 11.8132C81.3364 11.4069 81.5057 11.0949 81.7727 10.8773C82.0445 10.6596 82.3639 10.5508 82.731 10.5508C83.0505 10.5508 83.3032 10.633 83.4891 10.7975C83.6798 10.9619 83.7752 11.1989 83.7752 11.5085C83.7752 11.6149 83.7656 11.7164 83.7466 11.8132C83.675 12.2195 83.5058 12.5314 83.2388 12.7491C82.9766 12.9667 82.6619 13.0756 82.2948 13.0756C81.9753 13.0756 81.7179 12.9933 81.5224 12.8289C81.3317 12.6596 81.2363 12.4178 81.2363 12.1034C81.2363 12.0453 81.2458 11.9486 81.2649 11.8132ZM86.3855 10.6233L82.7811 15.7527H81.4366L85.041 10.6233H86.3855ZM82.5808 11.3779C82.3901 11.3779 82.2662 11.523 82.2089 11.8132C82.1994 11.8906 82.1946 11.9413 82.1946 11.9655C82.1946 12.1493 82.2709 12.2412 82.4235 12.2412C82.5236 12.2412 82.6071 12.205 82.6738 12.1324C82.7406 12.0598 82.7858 11.9534 82.8097 11.8132C82.8192 11.7745 82.824 11.7213 82.824 11.6536C82.824 11.4698 82.7429 11.3779 82.5808 11.3779ZM84.0755 14.5556C84.1471 14.1493 84.3163 13.8373 84.5833 13.6197C84.8503 13.402 85.1674 13.2932 85.5345 13.2932C85.8539 13.2932 86.1066 13.3754 86.2926 13.5399C86.4833 13.7043 86.5786 13.9438 86.5786 14.2581C86.5786 14.321 86.5691 14.4202 86.55 14.5556C86.4785 14.9619 86.3093 15.2763 86.0423 15.4988C85.78 15.7164 85.4654 15.8252 85.0982 15.8252C84.7788 15.8252 84.5237 15.743 84.333 15.5786C84.1423 15.4093 84.0469 15.165 84.0469 14.8458C84.0469 14.7878 84.0565 14.691 84.0755 14.5556ZM85.3843 14.1276C85.1841 14.1276 85.0601 14.2702 85.0124 14.5556C85.0029 14.5943 84.9981 14.6475 84.9981 14.7152C84.9981 14.899 85.0768 14.9909 85.2341 14.9909C85.4296 14.9909 85.5559 14.8458 85.6132 14.5556C85.6227 14.4879 85.6275 14.4395 85.6275 14.4105C85.6275 14.3186 85.606 14.2485 85.5631 14.2001C85.5202 14.1517 85.4606 14.1276 85.3843 14.1276Z" fill="black"/>
<path d="M73.6267 22.7902C73.1539 22.7902 72.7381 22.6914 72.3793 22.4938C72.0206 22.2908 71.7407 22.0082 71.5396 21.646C71.3439 21.2839 71.2461 20.8696 71.2461 20.4032C71.2461 19.7557 71.3901 19.1685 71.6782 18.6417C71.9717 18.1095 72.3739 17.6924 72.8848 17.3906C73.3957 17.0833 73.9664 16.9297 74.5969 16.9297C75.0752 16.9297 75.4938 17.0312 75.8525 17.2342C76.2167 17.4318 76.4966 17.7116 76.6922 18.0738C76.8879 18.4305 76.9857 18.842 76.9857 19.3084C76.9857 19.9614 76.839 20.5541 76.5455 21.0863C76.2574 21.6131 75.8579 22.0302 75.347 22.3374C74.8361 22.6393 74.2627 22.7902 73.6267 22.7902ZM73.7327 22.1152C74.211 22.1152 74.6377 21.9917 75.0127 21.7448C75.3932 21.4924 75.6894 21.1549 75.9014 20.7324C76.1134 20.3099 76.2194 19.8517 76.2194 19.3578C76.2194 18.8146 76.0645 18.3866 75.7547 18.0738C75.4448 17.761 75.0236 17.6046 74.491 17.6046C74.0126 17.6046 73.5833 17.7308 73.2028 17.9833C72.8278 18.2302 72.5343 18.5649 72.3223 18.9874C72.1157 19.4045 72.0125 19.8599 72.0125 20.3538C72.0125 20.897 72.1647 21.3278 72.469 21.646C72.7788 21.9588 73.2001 22.1152 73.7327 22.1152Z" fill="black"/>
<path d="M82.1114 16.9955L82.0054 17.5799H79.5432L79.2008 19.5471H81.2064L81.1004 20.1315H79.0948L78.6382 22.7325H77.8963L78.9073 16.9955H82.1114Z" fill="black"/>
<path d="M86.6726 16.9955L86.5666 17.5799H84.1045L83.762 19.5471H85.7677L85.6617 20.1315H83.656L83.1995 22.7325H82.4576L83.4685 16.9955H86.6726Z" fill="black"/>
<defs>
<filter id="filter0_d_11351_4598" x="5.35352" y="0" width="85.9883" height="78" filterUnits="userSpaceOnUse" color-interpolation-filters="sRGB">
<feFlood flood-opacity="0" result="BackgroundImageFix"/>
<feColorMatrix in="SourceAlpha" type="matrix" values="0 0 0 0 0 0 0 0 0 0 0 0 0 0 0 0 0 0 127 0" result="hardAlpha"/>
<feOffset dx="4" dy="4"/>
<feGaussianBlur stdDeviation="2"/>
<feComposite in2="hardAlpha" operator="out"/>
<feColorMatrix type="matrix" values="0 0 0 0 0 0 0 0 0 0 0 0 0 0 0 0 0 0 0.35 0"/>
<feBlend mode="normal" in2="BackgroundImageFix" result="effect1_dropShadow_11351_4598"/>
<feBlend mode="normal" in="SourceGraphic" in2="effect1_dropShadow_11351_4598" result="shape"/>
</filter>
<filter id="filter1_d_11351_4598" x="68.1328" y="5.64844" width="29.7539" height="30.0664" filterUnits="userSpaceOnUse" color-interpolation-filters="sRGB">
<feFlood flood-opacity="0" result="BackgroundImageFix"/>
<feColorMatrix in="SourceAlpha" type="matrix" values="0 0 0 0 0 0 0 0 0 0 0 0 0 0 0 0 0 0 127 0" result="hardAlpha"/>
<feOffset dx="4" dy="4"/>
<feGaussianBlur stdDeviation="2"/>
<feComposite in2="hardAlpha" operator="out"/>
<feColorMatrix type="matrix" values="0 0 0 0 0 0 0 0 0 0 0 0 0 0 0 0 0 0 0.35 0"/>
<feBlend mode="normal" in2="BackgroundImageFix" result="effect1_dropShadow_11351_4598"/>
<feBlend mode="normal" in="SourceGraphic" in2="effect1_dropShadow_11351_4598" result="shape"/>
</filter>
<linearGradient id="paint0_linear_11351_4598" x1="36.7037" y1="0" x2="36.7037" y2="70" gradientUnits="userSpaceOnUse">
<stop stop-color="#FFA337"/>
<stop offset="1" stop-color="#FF5C00"/>
</linearGradient>
<linearGradient id="paint1_linear_11351_4598" x1="71.2464" y1="34.5106" x2="10.967" y2="56.148" gradientUnits="userSpaceOnUse">
<stop stop-color="#FFA337"/>
<stop offset="1" stop-color="#FF5C00"/>
</linearGradient>
<linearGradient id="paint2_linear_11351_4598" x1="71.2464" y1="34.5106" x2="10.967" y2="56.148" gradientUnits="userSpaceOnUse">
<stop stop-color="#FFA337"/>
<stop offset="1" stop-color="#FF5C00"/>
</linearGradient>
<linearGradient id="paint3_linear_11351_4598" x1="71.2464" y1="34.5106" x2="10.967" y2="56.148" gradientUnits="userSpaceOnUse">
<stop stop-color="#FFA337"/>
<stop offset="1" stop-color="#FF5C00"/>
</linearGradient>
<linearGradient id="paint4_linear_11351_4598" x1="71.2464" y1="34.5106" x2="10.967" y2="56.148" gradientUnits="userSpaceOnUse">
<stop stop-color="#FFA337"/>
<stop offset="1" stop-color="#FF5C00"/>
</linearGradient>
<linearGradient id="paint5_linear_11351_4598" x1="75.5843" y1="8.62954" x2="86.2645" y2="34.7427" gradientUnits="userSpaceOnUse">
<stop stop-color="#00D7F5"/>
<stop offset="1" stop-color="#039BF1"/>
</linearGradient>
</defs>
</svg>
