<svg width="183" height="44" viewBox="0 0 183 44" fill="none" xmlns="http://www.w3.org/2000/svg">
<path d="M7.81986 4.23278C10.9935 -1.41093 18.8181 -1.41092 21.9918 4.23279L28.6709 16.1101C31.8818 21.8201 27.9329 29.008 21.5849 29.008H8.22674C1.87874 29.008 -2.0702 21.8201 1.14078 16.1101L7.81986 4.23278Z" fill="url(#paint0_linear_244_25611)"/>
<path d="M22.0082 39.7672C25.1819 45.4109 33.0065 45.4109 36.1801 39.7672L42.8592 27.8899C46.0702 22.1799 42.1213 14.992 35.7733 14.992H22.4151C16.0671 14.992 12.1182 22.1799 15.3291 27.8899L22.0082 39.7672Z" fill="url(#paint1_linear_244_25611)"/>
<path d="M67.1724 15.436V28H64.6524V19.828L61.2864 28H59.3784L55.9944 19.828V28H53.4744V15.436H56.3364L60.3324 24.778L64.3284 15.436H67.1724ZM74.0919 28.162C73.1319 28.162 72.2679 27.952 71.4999 27.532C70.7319 27.1 70.1259 26.494 69.6819 25.714C69.2499 24.934 69.0339 24.034 69.0339 23.014C69.0339 21.994 69.2559 21.094 69.6999 20.314C70.1559 19.534 70.7739 18.934 71.5539 18.514C72.3339 18.082 73.2039 17.866 74.1639 17.866C75.1239 17.866 75.9939 18.082 76.7739 18.514C77.5539 18.934 78.1659 19.534 78.6099 20.314C79.0659 21.094 79.2939 21.994 79.2939 23.014C79.2939 24.034 79.0599 24.934 78.5919 25.714C78.1359 26.494 77.5119 27.1 76.7199 27.532C75.9399 27.952 75.0639 28.162 74.0919 28.162ZM74.0919 25.966C74.5479 25.966 74.9739 25.858 75.3699 25.642C75.7779 25.414 76.1019 25.078 76.3419 24.634C76.5819 24.19 76.7019 23.65 76.7019 23.014C76.7019 22.066 76.4499 21.34 75.9459 20.836C75.4539 20.32 74.8479 20.062 74.1279 20.062C73.4079 20.062 72.8019 20.32 72.3099 20.836C71.8299 21.34 71.5899 22.066 71.5899 23.014C71.5899 23.962 71.8239 24.694 72.2919 25.21C72.7719 25.714 73.3719 25.966 74.0919 25.966ZM85.3004 25.678L87.8204 18.028H90.5024L86.8124 28H83.7524L80.0804 18.028H82.7804L85.3004 25.678ZM101.188 22.798C101.188 23.158 101.164 23.482 101.116 23.77H93.8258C93.8858 24.49 94.1378 25.054 94.5818 25.462C95.0258 25.87 95.5718 26.074 96.2198 26.074C97.1558 26.074 97.8218 25.672 98.2178 24.868H100.936C100.648 25.828 100.096 26.62 99.2798 27.244C98.4638 27.856 97.4618 28.162 96.2738 28.162C95.3138 28.162 94.4498 27.952 93.6818 27.532C92.9258 27.1 92.3318 26.494 91.8998 25.714C91.4798 24.934 91.2698 24.034 91.2698 23.014C91.2698 21.982 91.4798 21.076 91.8998 20.296C92.3198 19.516 92.9078 18.916 93.6638 18.496C94.4198 18.076 95.2898 17.866 96.2738 17.866C97.2218 17.866 98.0678 18.07 98.8118 18.478C99.5678 18.886 100.15 19.468 100.558 20.224C100.978 20.968 101.188 21.826 101.188 22.798ZM98.5778 22.078C98.5658 21.43 98.3318 20.914 97.8758 20.53C97.4198 20.134 96.8618 19.936 96.2018 19.936C95.5778 19.936 95.0498 20.128 94.6178 20.512C94.1978 20.884 93.9398 21.406 93.8438 22.078H98.5778ZM116.725 15.436V28H114.205V19.828L110.839 28H108.931L105.547 19.828V28H103.027V15.436H105.889L109.885 24.778L113.881 15.436H116.725ZM123.645 28.162C122.685 28.162 121.821 27.952 121.053 27.532C120.285 27.1 119.679 26.494 119.235 25.714C118.803 24.934 118.587 24.034 118.587 23.014C118.587 21.994 118.809 21.094 119.253 20.314C119.709 19.534 120.327 18.934 121.107 18.514C121.887 18.082 122.757 17.866 123.717 17.866C124.677 17.866 125.547 18.082 126.327 18.514C127.107 18.934 127.719 19.534 128.163 20.314C128.619 21.094 128.847 21.994 128.847 23.014C128.847 24.034 128.613 24.934 128.145 25.714C127.689 26.494 127.065 27.1 126.273 27.532C125.493 27.952 124.617 28.162 123.645 28.162ZM123.645 25.966C124.101 25.966 124.527 25.858 124.923 25.642C125.331 25.414 125.655 25.078 125.895 24.634C126.135 24.19 126.255 23.65 126.255 23.014C126.255 22.066 126.003 21.34 125.499 20.836C125.007 20.32 124.401 20.062 123.681 20.062C122.961 20.062 122.355 20.32 121.863 20.836C121.383 21.34 121.143 22.066 121.143 23.014C121.143 23.962 121.377 24.694 121.845 25.21C122.325 25.714 122.925 25.966 123.645 25.966ZM136.221 17.884C137.409 17.884 138.369 18.262 139.101 19.018C139.833 19.762 140.199 20.806 140.199 22.15V28H137.679V22.492C137.679 21.7 137.481 21.094 137.085 20.674C136.689 20.242 136.149 20.026 135.465 20.026C134.769 20.026 134.217 20.242 133.809 20.674C133.413 21.094 133.215 21.7 133.215 22.492V28H130.695V18.028H133.215V19.27C133.551 18.838 133.977 18.502 134.493 18.262C135.021 18.01 135.597 17.884 136.221 17.884ZM151.866 22.798C151.866 23.158 151.842 23.482 151.794 23.77H144.504C144.564 24.49 144.816 25.054 145.26 25.462C145.704 25.87 146.25 26.074 146.898 26.074C147.834 26.074 148.5 25.672 148.896 24.868H151.614C151.326 25.828 150.774 26.62 149.958 27.244C149.142 27.856 148.14 28.162 146.952 28.162C145.992 28.162 145.128 27.952 144.36 27.532C143.604 27.1 143.01 26.494 142.578 25.714C142.158 24.934 141.948 24.034 141.948 23.014C141.948 21.982 142.158 21.076 142.578 20.296C142.998 19.516 143.586 18.916 144.342 18.496C145.098 18.076 145.968 17.866 146.952 17.866C147.9 17.866 148.746 18.07 149.49 18.478C150.246 18.886 150.828 19.468 151.236 20.224C151.656 20.968 151.866 21.826 151.866 22.798ZM149.256 22.078C149.244 21.43 149.01 20.914 148.554 20.53C148.098 20.134 147.54 19.936 146.88 19.936C146.256 19.936 145.728 20.128 145.296 20.512C144.876 20.884 144.618 21.406 144.522 22.078H149.256ZM163.245 18.028L157.071 32.716H154.389L156.549 27.748L152.553 18.028H155.379L157.953 24.994L160.563 18.028H163.245ZM171.605 15.418V16.462H166.061V21.16H170.741V22.204H166.061V28H164.801V15.418H171.605ZM178.214 21.718L182.03 28H180.626L177.422 22.744L174.38 28H172.976L176.774 21.664L172.976 15.418H174.38L177.566 20.656L180.644 15.418H182.048L178.214 21.718Z" fill="black"/>
<defs>
<linearGradient id="paint0_linear_244_25611" x1="21.865" y1="-4.31902" x2="11.6074" y2="51.6933" gradientUnits="userSpaceOnUse">
<stop stop-color="#FFAF37"/>
<stop offset="0.86532" stop-color="#FF2E00"/>
<stop offset="0.9999" stop-color="#FF7B01"/>
</linearGradient>
<linearGradient id="paint1_linear_244_25611" x1="26.454" y1="36.4417" x2="16.7362" y2="-4.45399" gradientUnits="userSpaceOnUse">
<stop stop-color="#00D7F5"/>
<stop offset="1" stop-color="#039BF1"/>
</linearGradient>
</defs>
</svg>
